<svg width="474" height="432" viewBox="0 0 474 432" fill="none" xmlns="http://www.w3.org/2000/svg">
<path d="M178.196 31.8086C272.006 -9.48737 348.581 39.2369 396.978 109.477C420.895 144.187 443.86 188.055 451.09 238.997C454.035 259.754 446.799 284.019 439.036 306.896C425.874 345.683 403.287 367.191 374.992 383.16C295.121 428.238 222.145 383.485 163.724 354.121C81.3768 312.732 24.0075 232.018 3.75906 115.542C-0.144829 93.0859 -0.763849 71.6715 17.6208 48.8611C28.6785 35.1413 42.1461 27.9734 54.9501 21.937C88.6668 6.04127 121.854 -0.713848 152.391 3.40856C204.79 10.4823 252.501 33.7937 292.997 66.3328C358.63 119.07 415.588 193.084 457.262 277.568C465.198 293.656 476.136 314.018 470.084 339.545C465.35 359.515 454.345 383.709 440.795 398.93C409.597 433.975 365.253 433.286 337.2 426.797C286.967 415.177 239.496 394.586 195.059 369.972C167.184 354.533 142.362 334.297 119.48 310.466C89.2292 278.962 56.9292 245.504 38.0499 197.319M38.0499 197.319C28.3258 172.501 19.7092 133.386 35.4863 100.79C61.9852 46.043 129.669 42.4403 165.012 35.8623C219.594 25.7035 269.383 32.9725 314.705 52.5477C346.902 66.4538 375.794 86.6945 397.042 118.575C409.175 136.779 416.129 152.037 424.211 174.323C429.671 189.379 437.507 209.361 434.275 230.516C427.273 276.345 392.014 325.518 358.356 344.144C316.408 367.357 276.775 365.72 241.505 355.501C210.9 346.634 178.082 335.116 148.359 316.04C126.622 302.089 109.764 283.468 93.7938 269.46C66.3001 245.345 58.7478 232.196 38.0499 197.319Z" stroke="#0E2FA6" stroke-width="3" stroke-linecap="round"/>
</svg>
