<svg width="100" height="100" viewBox="0 0 100 100" fill="none" xmlns="http://www.w3.org/2000/svg">
<path d="M79.3965 47.4351L54.215 73.0578C49.7521 77.5948 43.9234 80.23 37.7892 80.4799C37.4764 80.4919 37.1596 80.5 36.8507 80.5C31.0137 80.5 25.6478 78.296 21.6566 74.2344C17.4551 69.9593 15.2731 64.1288 15.5187 57.8189C15.7602 51.5815 18.3501 45.6461 22.8129 41.1054L38.3912 25.2541C39.3059 24.3234 40.7909 24.3234 41.7056 25.2541C42.6204 26.1849 42.6204 27.6959 41.7056 28.6267L26.1274 44.4779C22.504 48.1647 20.4013 52.9677 20.2032 58.0041C20.0092 62.9682 21.7041 67.5335 24.971 70.8577C31.798 77.8084 43.4283 77.2806 50.8966 69.6812L76.0781 44.0585C80.9092 39.1427 81.0517 32.422 76.4266 27.7111C71.8013 23.0048 65.1922 23.1498 60.3607 28.0657L35.9557 52.8983C33.5797 55.3159 33.1797 59.0027 35.0885 60.9449C35.9755 61.8474 37.2506 62.2786 38.6841 62.1698C40.2523 62.0449 41.7848 61.2995 42.9965 60.0664L63.9842 38.7111C64.8989 37.7803 66.3839 37.7803 67.2986 38.7111C68.2133 39.6418 68.2133 41.1529 67.2986 42.0836L46.311 63.439C44.3072 65.4778 41.7254 66.7148 39.0444 66.9284C38.7712 66.9485 38.4979 66.9606 38.2287 66.9606C35.73 66.9606 33.4609 66.0379 31.7739 64.3214C29.9048 62.4195 28.994 59.7924 29.2119 56.9235C29.4178 54.1916 30.6374 51.5685 32.6412 49.5296L57.0421 24.7011L57.0461 24.6971C63.7225 17.9037 73.266 17.7545 79.7409 24.3425C86.2154 30.9305 86.0689 40.6456 79.3924 47.4391L79.3965 47.4351Z" fill="#1A1A1A"/>
</svg>
