<svg width="30" height="19" viewBox="0 0 30 19" fill="none" xmlns="http://www.w3.org/2000/svg">
<path d="M0 3.63636C0 1.62806 1.62806 0 3.63636 0H30V15.3636C30 17.3719 28.3719 19 26.3636 19H0V3.63636Z" fill="#F6A500"/>
<path d="M18.2963 15.0724H24.3478L24.9997 13.2728H22.4782V3.91504H18.4316V5.68978H20.4979V13.2852H18.2963V15.0724ZM16.3406 9.51231C16.3406 6.19863 14.102 3.91504 10.6457 3.91504H5.5904L5 5.80148H6.86959V15.0848H10.658C14.102 15.0724 16.3406 12.7888 16.3406 9.51231ZM14.1635 9.51231C14.1635 11.9697 12.6383 13.2231 10.5965 13.2231H8.92369V5.76425H10.5965C12.6383 5.76425 14.1635 6.99292 14.1635 9.51231Z" fill="white"/>
</svg>
