<svg width="30" height="19" viewBox="0 0 30 19" fill="none" xmlns="http://www.w3.org/2000/svg">
<path d="M0 3.63636C0 1.62806 1.62806 0 3.63636 0H30V15.3636C30 17.3719 28.3719 19 26.3636 19H0V3.63636Z" fill="#E95B0C"/>
<path d="M24.0475 9.09051C23.5315 8.56328 22.9257 8.22676 22.1966 8.08093L24.7654 5.51213V3.96411H17.6647V5.815H22.2078L19.538 8.48476V9.79721L19.8185 9.75234C19.9419 9.74112 20.0653 9.7299 20.2111 9.70747C20.3569 9.68503 20.4803 9.69625 20.6149 9.69625C21.2992 9.69625 21.8488 9.8533 22.3088 10.1674C22.735 10.459 22.9594 10.8741 22.9594 11.4462C22.9594 11.9846 22.7687 12.4109 22.3648 12.725C21.961 13.0503 21.4899 13.2073 20.9066 13.2073C20.4018 13.2073 19.9643 13.1288 19.5717 12.9605C19.1679 12.7811 18.8089 12.5455 18.4612 12.2202L18.2929 12.0631L16.958 13.398L17.1263 13.5663C17.575 14.015 18.1246 14.3739 18.7865 14.6544C19.4595 14.9236 20.1662 15.047 20.9402 15.047C22.062 15.047 23.0379 14.6993 23.8231 14.0038C24.5971 13.3083 25.001 12.4445 25.001 11.435C24.9785 10.4927 24.6756 9.71869 24.0475 9.09051Z" fill="white"/>
<path d="M14.131 5.5009C13.1327 4.45767 11.7641 3.95288 10.0591 3.95288H5.47113L5 5.7589H6.45827V14.8451H10.0591C11.7641 14.8451 13.1327 14.3403 14.131 13.3195C15.1182 12.2875 15.6005 10.9863 15.6005 9.4158C15.623 7.83413 15.1182 6.53291 14.131 5.5009ZM13.5365 9.4158C13.5365 10.6722 13.1888 11.5583 12.5269 12.1529C11.8651 12.7474 11.0126 13.0615 9.96935 13.0615H8.47742V5.78133H9.96935C11.0238 5.78133 11.8763 6.0842 12.5269 6.70117C13.1888 7.29569 13.5365 8.18188 13.5365 9.4158Z" fill="white"/>
</svg>
