<svg width="30" height="19" viewBox="0 0 30 19" fill="none" xmlns="http://www.w3.org/2000/svg">
<path d="M0 3.63636C0 1.62806 1.62806 0 3.63636 0H30V15.3636C30 17.3719 28.3719 19 26.3636 19H0V3.63636Z" fill="#41B384"/>
<path d="M13.6957 5.71729C12.7283 4.70642 11.4022 4.21729 9.75 4.21729H5.44565L5 5.97815H6.25V14.7825H9.73913C11.3913 14.7825 12.7174 14.2934 13.6848 13.3042C14.6413 12.3042 15.1087 11.0434 15.1087 9.52163C15.1196 7.98902 14.6522 6.71728 13.6957 5.71729ZM13.1087 9.49989C13.1087 10.7173 12.7717 11.576 12.1413 12.1521C11.4891 12.7282 10.6739 13.0325 9.66304 13.0325H8.20652V5.98902H9.65217C10.6739 5.98902 11.5 6.2825 12.1304 6.88033C12.7717 7.45642 13.1087 8.31511 13.1087 9.49989Z" fill="white"/>
<path d="M23.2178 10.8041V7.76064H21.3156V10.8041H18.5982L21.4352 4.22803H19.4026L16.4678 11.1519V12.5106H21.3156V14.7824H23.2178V12.5106H24.3591L25.0004 10.8041H23.2178Z" fill="white"/>
</svg>
