<svg width="30" height="19" viewBox="0 0 30 19" fill="none" xmlns="http://www.w3.org/2000/svg">
<path d="M0 3.63636C0 1.62806 1.62806 0 3.63636 0H30V15.3636C30 17.3719 28.3719 19 26.3636 19H0V3.63636Z" fill="#E94282"/>
<path d="M17.269 5.80662L18.4638 7.02433C19.1301 6.3925 20.0491 5.94447 20.9222 5.94447C21.8987 5.94447 22.6683 6.49589 22.6683 7.42641C22.6683 8.24205 22.2433 8.80495 20.3133 10.7234L17.6711 13.3427V14.7442H24.4145L25.0004 13.1014H20.2444V13.0784L22.1169 11.2863C23.8631 9.62059 24.5524 8.6671 24.5524 7.26558C24.5524 5.68025 23.3117 4.25576 21.0141 4.25576C19.5666 4.24427 18.1766 4.93354 17.269 5.80662ZM15.6033 9.58613C15.6033 6.51887 13.5125 4.4051 10.2614 4.4051H5.55142L5 6.15126H6.72318V14.7442H10.2614C13.524 14.7327 15.6033 12.6189 15.6033 9.58613ZM13.547 9.58613C13.547 11.8607 12.1225 13.044 10.2155 13.044H8.65314V6.11679H10.2155C12.1225 6.11679 13.547 7.28855 13.547 9.58613Z" fill="white"/>
</svg>
