<svg width="30" height="19" viewBox="0 0 30 19" fill="none" xmlns="http://www.w3.org/2000/svg">
<path d="M3.63636 0.5H29.5V15.3636C29.5 17.0958 28.0958 18.5 26.3636 18.5H0.5V3.63636C0.5 1.9042 1.9042 0.5 3.63636 0.5Z" fill="white"/>
<path d="M3.63636 0.5H29.5V15.3636C29.5 17.0958 28.0958 18.5 26.3636 18.5H0.5V3.63636C0.5 1.9042 1.9042 0.5 3.63636 0.5Z" stroke="#EF161E"/>
<path d="M21.0365 12.9663L17.7662 4.6897L14.9998 9.52799L12.2447 4.6897L8.96318 12.9663H8V14.2207H12.9503V12.9663H12.2111L12.9279 10.9056L14.9998 14.3103L17.0718 10.9056L17.7886 12.9663H17.0494V14.2207H21.9997V12.9663H21.0365Z" fill="#EF161E"/>
<path d="M4 2.62744H27.5V15.1274C27.5 15.9559 26.8284 16.6274 26 16.6274H2.5V4.12744C2.5 3.29901 3.17157 2.62744 4 2.62744Z" stroke="#EF161E"/>
</svg>
