<svg width="32" height="29" viewBox="0 0 32 29" fill="none" xmlns="http://www.w3.org/2000/svg">
<g clip-path="url(#clip0_3969_33150)">
<path d="M18.8353 1.01835C18.2191 1.30383 17.698 1.76059 17.3343 2.33414C16.757 2.11306 16.1327 2.04379 15.521 2.13296C14.9093 2.22213 14.3308 2.46675 13.8406 2.84343L13.1639 3.53802C12.5565 3.13554 11.8397 2.93036 11.1113 2.95049C10.383 2.97061 9.67856 3.21507 9.09432 3.65048L8.50549 4.0942L6.81939 1.85666C6.50625 1.41129 6.09836 1.04081 5.62502 0.771829C5.15167 0.502851 4.62463 0.342053 4.08175 0.300991C3.53887 0.259929 2.99364 0.339621 2.48522 0.534341C1.9768 0.729062 1.51782 1.03398 1.14126 1.42718C0.582946 2.07985 0.264898 2.904 0.24002 3.76253C0.215142 4.62107 0.484934 5.46225 1.00452 6.14615L7.57146 14.8608L5.09337 14.5125C4.61721 14.4365 4.13067 14.4567 3.66242 14.5717C3.19417 14.6867 2.75368 14.8943 2.36691 15.1823C1.99004 15.4661 1.67652 15.8254 1.4464 16.2372C1.21628 16.6491 1.07462 17.1044 1.03047 17.5741C0.958976 17.9826 0.972299 18.4015 1.06961 18.8046C1.16693 19.2077 1.34615 19.5865 1.59613 19.9174C2.26664 20.7289 3.14453 21.3435 4.13646 21.6959C5.81921 22.4589 15.7084 26.639 18.6456 27.8415C18.8785 27.9487 19.1363 27.99 19.3911 27.9609C19.6458 27.9317 19.8877 27.8331 20.0903 27.676L31.1602 19.3342C31.434 19.1411 31.6339 18.8606 31.727 18.5387C31.8201 18.2169 31.8008 17.8729 31.6723 17.5635L27.8173 8.2824C27.7806 8.13531 27.7095 7.99903 27.61 7.88473L23.3947 2.29089C22.8868 1.59907 22.1615 1.09767 21.3349 0.866953C20.5082 0.636236 19.6281 0.689548 18.8353 1.01835ZM28.561 17.6001L18.9631 24.8326C15.3766 23.3809 6.78617 19.6992 5.25104 19.0096C5.10341 18.9362 3.80465 18.4378 3.86269 18.0248L4.14176 17.5376C4.30177 17.4294 4.49513 17.3819 4.68705 17.4036L10.7645 18.363C11.0388 18.3806 11.3125 18.3212 11.5548 18.1915C11.7971 18.0618 11.9983 17.867 12.1358 17.629C12.2733 17.391 12.3415 17.1194 12.3328 16.8447C12.324 16.57 12.2387 16.3032 12.0864 16.0744L3.25657 4.35679C3.13889 4.20063 3.08807 4.00411 3.11528 3.81047C3.1425 3.61683 3.24552 3.44194 3.40168 3.32426C3.55785 3.20658 3.75437 3.15575 3.94801 3.18297C4.14165 3.21018 4.31654 3.3132 4.43422 3.46937L10.6462 11.7129C10.7526 11.8708 10.89 12.0053 11.0501 12.1082C11.2102 12.2111 11.3896 12.2804 11.5773 12.3117C11.7651 12.343 11.9572 12.3357 12.1421 12.2903C12.3269 12.2449 12.5005 12.1623 12.6524 12.0475C12.9647 11.8122 13.1708 11.4624 13.2252 11.0751C13.2796 10.6878 13.178 10.2948 12.9426 9.98246L10.7241 7.03833C10.6064 6.88216 10.5556 6.68564 10.5828 6.492C10.61 6.29836 10.713 6.12347 10.8692 6.00579C11.026 5.91061 11.2126 5.87728 11.3926 5.91232C11.5727 5.94735 11.7332 6.04824 11.8428 6.19527L14.5051 9.72823C14.7405 10.0406 15.0902 10.2466 15.4775 10.301C15.8648 10.3555 16.2578 10.2538 16.5702 10.0185C16.8825 9.7831 17.0885 9.4333 17.143 9.04603C17.1974 8.65875 17.0958 8.26571 16.8604 7.95338L15.5293 6.1869C15.4649 6.11879 15.4157 6.03783 15.3849 5.94933C15.3541 5.86083 15.3424 5.76681 15.3505 5.67346C15.3586 5.5801 15.3865 5.48953 15.4321 5.40771C15.4778 5.32589 15.5403 5.25466 15.6155 5.19873C15.688 5.12928 15.7752 5.07717 15.8708 5.04633C15.9663 5.01549 16.0676 5.00673 16.167 5.0207C16.2664 5.03467 16.3613 5.07101 16.4446 5.12698C16.528 5.18296 16.5975 5.25711 16.648 5.34385L18.8666 8.28798C19.102 8.60031 19.4517 8.80635 19.839 8.86078C20.2263 8.91521 20.6193 8.81357 20.9317 8.57821C21.0838 8.46387 21.2111 8.31973 21.3057 8.15457C21.4003 7.98941 21.4603 7.80671 21.4819 7.61761C21.5036 7.42851 21.4865 7.23698 21.4316 7.05471C21.3768 6.87245 21.2854 6.70327 21.163 6.5575L19.8319 4.79102C19.7142 4.63486 19.6634 4.43834 19.6906 4.2447C19.7178 4.05106 19.8208 3.87617 19.977 3.75849C20.1332 3.64081 20.3297 3.58998 20.5233 3.6172C20.717 3.64441 20.8918 3.74743 21.0095 3.9036L25.2248 9.49745C25.3244 9.61174 25.3954 9.74802 25.4321 9.89511L28.561 17.6001Z" fill="black"/>
<path d="M28.561 17.6001L18.9631 24.8326C15.3766 23.3809 6.78617 19.6992 5.25104 19.0096C5.10341 18.9362 3.80465 18.4378 3.86269 18.0248L4.14176 17.5376C4.30177 17.4294 4.49513 17.3819 4.68705 17.4036L10.7645 18.363C11.0388 18.3806 11.3125 18.3212 11.5548 18.1915C11.7971 18.0618 11.9983 17.867 12.1358 17.629C12.2733 17.391 12.3415 17.1194 12.3328 16.8447C12.324 16.57 12.2387 16.3032 12.0864 16.0744L3.25657 4.35679C3.13889 4.20063 3.08807 4.00411 3.11528 3.81047C3.1425 3.61683 3.24552 3.44194 3.40168 3.32426C3.55785 3.20658 3.75437 3.15575 3.94801 3.18297C4.14165 3.21018 4.31654 3.3132 4.43422 3.46937L10.6462 11.7129C10.7526 11.8708 10.89 12.0053 11.0501 12.1082C11.2102 12.2111 11.3896 12.2804 11.5773 12.3117C11.7651 12.343 11.9572 12.3357 12.1421 12.2903C12.3269 12.2449 12.5005 12.1623 12.6524 12.0475C12.9647 11.8122 13.1708 11.4624 13.2252 11.0751C13.2796 10.6878 13.178 10.2948 12.9426 9.98246L10.7241 7.03833C10.6064 6.88216 10.5556 6.68564 10.5828 6.492C10.61 6.29836 10.713 6.12347 10.8692 6.00579C11.026 5.91061 11.2126 5.87728 11.3926 5.91232C11.5727 5.94735 11.7332 6.04824 11.8428 6.19527L14.5051 9.72823C14.7405 10.0406 15.0902 10.2466 15.4775 10.301C15.8648 10.3555 16.2578 10.2538 16.5702 10.0185C16.8825 9.7831 17.0885 9.4333 17.143 9.04603C17.1974 8.65875 17.0958 8.26571 16.8604 7.95338L15.5293 6.1869C15.4649 6.11879 15.4157 6.03783 15.3849 5.94933C15.3541 5.86083 15.3424 5.76681 15.3505 5.67346C15.3586 5.5801 15.3865 5.48953 15.4321 5.40771C15.4778 5.32589 15.5403 5.25466 15.6155 5.19873C15.688 5.12928 15.7752 5.07717 15.8708 5.04633C15.9663 5.01549 16.0676 5.00673 16.167 5.0207C16.2664 5.03467 16.3613 5.07101 16.4446 5.12698C16.528 5.18296 16.5975 5.25711 16.648 5.34385L18.8666 8.28798C19.102 8.60031 19.4517 8.80635 19.839 8.86078C20.2263 8.91521 20.6193 8.81357 20.9317 8.57821C21.0838 8.46387 21.2111 8.31973 21.3057 8.15457C21.4003 7.98941 21.4603 7.80671 21.4819 7.61761C21.5036 7.42851 21.4865 7.23698 21.4316 7.05471C21.3768 6.87245 21.2854 6.70327 21.163 6.5575L19.8319 4.79102C19.7142 4.63486 19.6634 4.43834 19.6906 4.2447C19.7178 4.05106 19.8208 3.87617 19.977 3.75849C20.1332 3.64081 20.3297 3.58998 20.5233 3.6172C20.717 3.64441 20.8918 3.74743 21.0095 3.9036L25.2248 9.49745C25.3244 9.61174 25.3954 9.74802 25.4321 9.89511L28.561 17.6001Z" fill="#F1FD53"/>
</g>
<defs>
<clipPath id="clip0_3969_33150">
<rect width="32" height="28.2597" fill="white"/>
</clipPath>
</defs>
</svg>
