<svg width="649" height="240" viewBox="0 0 649 240" fill="none" xmlns="http://www.w3.org/2000/svg">
<path d="M451.466 13.5696C496.368 27.2005 540.207 41.2262 575.998 71.0244C590.582 83.1659 596.092 94.1128 600.271 111.363C607.357 140.61 594.769 162.2 572.973 182.28C511.448 238.959 408.029 236.191 328.787 238.078C217.092 240.739 114.781 220.658 28.9295 153.833C12.3773 140.949 -4.05376 116.572 3.27834 95.632C7.68837 83.0371 18.4128 69.8426 28.9295 61.5117C56.6232 39.5738 88.6534 35.5366 123.907 27.4237C184.4 13.5027 309.723 12.5846 371.344 19.0117C471.216 29.4282 512.426 47.3524 603.853 86.3409C621.262 93.765 629.498 99.0117 638.498 111.363C650.579 127.942 649.276 158.088 642.998 172.512C628.544 205.721 589.985 217.522 556.114 223.26C495.464 233.533 432.871 237.142 371.344 237.131C332.75 237.124 294.82 233 257.011 225.912C207.026 216.542 146.034 196.772 100.892 173.697C76.7548 161.358 51.9614 137.598 51.1019 111.363C49.5509 64.0244 144.629 35.2022 183.998 27.4237C259.498 12.5065 267.534 6.08374 327.249 2.58547C369.669 0.100319 411 0.797298 451.466 13.5696ZM451.466 13.5696C474.572 20.8627 490.465 28.1054 511.437 39.4127C525.605 47.0519 545.046 56.9837 553.175 71.5489C572.973 93.3409 575.998 111.363 572.973 143.012" stroke="#FC1D00" stroke-width="2" stroke-linecap="round"/>
</svg>
