<svg width="39" height="33" viewBox="0 0 39 33" fill="none" xmlns="http://www.w3.org/2000/svg">
<path d="M35.1152 1.10054C30.0532 3.19416 8.34941 12.1733 2.35245 14.6207C-1.66949 16.1883 0.684786 17.6579 0.684786 17.6579C0.684786 17.6579 4.11785 18.8334 7.06059 19.7152C10.0033 20.597 11.5729 19.6172 11.5729 19.6172L25.4037 10.3097C30.3081 6.97882 29.1312 9.7219 27.9542 10.8974C25.4037 13.4448 21.1858 17.4614 17.6546 20.6947C16.0851 22.0662 16.8699 23.2421 17.5565 23.8299C20.1071 25.9852 27.0713 30.3939 27.4639 30.688C29.5363 32.1531 33.6123 34.2625 34.2323 29.8062L36.6847 14.4247C37.4695 9.23218 38.2542 4.43137 38.3524 3.05983C38.6464 -0.271006 35.1152 1.10054 35.1152 1.10054Z" fill="#F1FD53"/>
</svg>
