<svg width="467" height="364" viewBox="0 0 467 364" fill="none" xmlns="http://www.w3.org/2000/svg">
<path d="M48.5482 167.958C40.2937 71.1349 106.791 23.4367 183.863 8.28544C221.949 0.798339 267.883 -2.3849 315.332 10.7286C334.665 16.0718 354.03 31.5546 372.001 46.9643C402.471 73.0919 414.732 100.801 420.343 131.341C436.183 217.548 374.304 263.643 330.51 303.002C268.78 358.48 179.683 377.409 70.067 350.641C48.9329 345.48 29.7204 337.874 15.0276 313.304C6.1903 298.526 3.90418 284.154 2.42221 270.787C-1.48029 235.586 2.57741 204.319 15.4956 179.478C37.6621 136.853 72.8333 104.456 114.016 81.8054C180.762 45.0951 263.781 23.9756 351.47 20.0534C368.167 19.3066 389.573 17.5882 410.417 32.5257C426.724 44.2118 444.883 62.9257 454.299 80.4297C475.978 120.732 461.925 158.818 447.656 180.611C422.107 219.634 389.425 252.858 354.089 281.93C331.924 300.167 306.422 313.939 278.316 324.668C241.158 338.852 201.643 354.065 153.112 352.074M153.112 352.074C128.116 351.049 90.7537 343.63 66.5772 317.595C25.9707 273.867 43.285 213.966 48.1533 180.901C55.6718 129.838 77.2209 89.5441 108.349 57.7919C130.462 35.2354 157.202 17.9441 191.965 11.6889C211.815 8.11709 227.478 7.90394 249.727 9.38677C264.758 10.3886 284.886 11.2084 302.701 22.0457C341.294 45.5228 374.293 94.7072 380.639 130.894C388.547 175.996 375.08 209.647 355.311 236.263C338.157 259.359 317.977 283.361 292.021 301.813C273.038 315.308 251.385 322.807 234.099 331.292C204.342 345.901 190.371 347.433 153.112 352.074Z" stroke="#FC1D00" stroke-width="2" stroke-linecap="round"/>
</svg>
