<svg width="40" height="40" viewBox="0 0 40 40" fill="none" xmlns="http://www.w3.org/2000/svg">
<path d="M0 10C0 4.47715 4.47715 0 10 0H40V30C40 35.5228 35.5228 40 30 40H0V10Z" fill="#6D6D6D"/>
<path fill-rule="evenodd" clip-rule="evenodd" d="M5.5 15.4217C5.5 15.0003 5.84168 14.6586 6.26316 14.6586H12.3684C12.7899 14.6586 13.1316 15.0003 13.1316 15.4217C13.1316 19.2151 16.2067 22.2901 20 22.2901C23.7934 22.2901 26.8684 19.2151 26.8684 15.4217C26.8684 15.0003 27.2102 14.6586 27.6316 14.6586H33.7368C34.1583 14.6586 34.5 15.0003 34.5 15.4217V27.6323C34.5 28.0537 34.1583 28.3954 33.7368 28.3954H6.26316C5.84168 28.3954 5.5 28.0537 5.5 27.6323V15.4217ZM7.02632 16.1849V26.8691H32.9737V16.1849H28.3605C27.975 20.4636 24.379 23.8165 20 23.8165C15.621 23.8165 12.0251 20.4636 11.6395 16.1849H7.02632Z" fill="#F1FD53"/>
<path fill-rule="evenodd" clip-rule="evenodd" d="M26.8691 12.3677C26.8691 11.9462 27.2109 11.6045 27.6323 11.6045H33.7376C34.159 11.6045 34.5007 11.9462 34.5007 12.3677V15.4203C34.5007 15.8418 34.159 16.1834 33.7376 16.1834C33.3161 16.1834 32.9744 15.8418 32.9744 15.4203V13.1308H28.3955V15.4203C28.3955 15.8418 28.0537 16.1834 27.6323 16.1834C27.2109 16.1834 26.8691 15.8418 26.8691 15.4203V12.3677Z" fill="#F1FD53"/>
<path fill-rule="evenodd" clip-rule="evenodd" d="M30.687 11.6045C31.1084 11.6045 31.4501 11.9462 31.4501 12.3677V15.4203C31.4501 15.8418 31.1084 16.1834 30.687 16.1834C30.2656 16.1834 29.9238 15.8418 29.9238 15.4203V12.3677C29.9238 11.9462 30.2656 11.6045 30.687 11.6045Z" fill="#F1FD53"/>
<path fill-rule="evenodd" clip-rule="evenodd" d="M5.5 12.3677C5.5 11.9462 5.84168 11.6045 6.26316 11.6045H12.3684C12.7899 11.6045 13.1316 11.9462 13.1316 12.3677V15.4203C13.1316 15.8418 12.7899 16.1834 12.3684 16.1834C11.9469 16.1834 11.6053 15.8418 11.6053 15.4203V13.1308H7.02632V15.4203C7.02632 15.8418 6.68463 16.1834 6.26316 16.1834C5.84168 16.1834 5.5 15.8418 5.5 15.4203V12.3677Z" fill="#F1FD53"/>
<path fill-rule="evenodd" clip-rule="evenodd" d="M9.31687 11.6045C9.73835 11.6045 10.08 11.9462 10.08 12.3677V15.4203C10.08 15.8418 9.73835 16.1834 9.31687 16.1834C8.89539 16.1834 8.55371 15.8418 8.55371 15.4203V12.3677C8.55371 11.9462 8.89539 11.6045 9.31687 11.6045Z" fill="#F1FD53"/>
<path fill-rule="evenodd" clip-rule="evenodd" d="M15.4349 13.1168C15.7778 12.8718 16.2545 12.9513 16.4995 13.2942L16.8306 13.7578C16.9968 13.9905 17.2651 14.1286 17.551 14.1286H22.448C22.7339 14.1286 23.0022 13.9905 23.1684 13.7578L23.4995 13.2942C23.7445 12.9513 24.2211 12.8718 24.5641 13.1168C24.9071 13.3618 24.9866 13.8384 24.7416 14.1814L24.4104 14.645C23.9577 15.2788 23.2269 15.6549 22.448 15.6549H17.551C16.7721 15.6549 16.0413 15.2788 15.5886 14.645L15.2574 14.1814C15.0125 13.8384 15.0919 13.3618 15.4349 13.1168Z" fill="#F1FD53"/>
<path d="M18.3584 17.0387C18.3584 17.4938 17.9893 17.8629 17.5342 17.8629C17.079 17.8629 16.71 17.4938 16.71 17.0387C16.71 16.5835 17.079 16.2145 17.5342 16.2145C17.9893 16.2145 18.3584 16.5835 18.3584 17.0387Z" fill="#F1FD53"/>
<path d="M23.2978 17.0387C23.2978 17.4938 22.9288 17.8629 22.4736 17.8629C22.0185 17.8629 21.6494 17.4938 21.6494 17.0387C21.6494 16.5835 22.0185 16.2145 22.4736 16.2145C22.9288 16.2145 23.2978 16.5835 23.2978 17.0387Z" fill="#F1FD53"/>
</svg>
