<svg width="40" height="40" viewBox="0 0 40 40" fill="none" xmlns="http://www.w3.org/2000/svg">
<path d="M0 10C0 4.47715 4.47715 0 10 0H40V30C40 35.5228 35.5228 40 30 40H0V10Z" fill="#6D6D6D"/>
<path d="M27.3125 29.4286V23.4681C29.8389 23.0876 31.7812 20.9775 31.7812 18.4286C31.7812 17.6781 31.6099 16.94 31.2861 16.2679C31.6114 15.5957 31.7812 14.8576 31.7812 14.1071C31.7812 11.2896 29.4136 9 26.5 9C23.5864 9 21.2188 11.2896 21.2188 14.1071C21.2188 14.8576 21.3901 15.5957 21.7139 16.2679C21.3886 16.94 21.2188 17.6781 21.2188 18.4286C21.2188 20.9775 23.1611 23.0875 25.6875 23.4681V29.4286H14.3125V23.4681C16.8389 23.0876 18.7812 20.9775 18.7812 18.4286C18.7812 17.6781 18.6099 16.94 18.2861 16.2679C18.6114 15.5957 18.7812 14.8576 18.7812 14.1071C18.7812 11.2896 16.4136 9 13.5 9C10.5864 9 8.21875 11.2896 8.21875 14.1071C8.21875 14.8576 8.39014 15.5957 8.71389 16.2679C8.38857 16.94 8.21875 17.6781 8.21875 18.4286C8.21875 20.9775 10.1611 23.0875 12.6875 23.4681V29.4286H7V31H33V29.4286H27.3125ZM22.8438 18.4286C22.8438 17.804 23.0151 17.1948 23.3309 16.6607L23.5658 16.2679L23.3309 15.875C23.0104 15.344 22.8438 14.7317 22.8438 14.1071C22.8438 12.1582 24.4846 10.5714 26.5 10.5714C28.5154 10.5714 30.1562 12.1582 30.1562 14.1071C30.1562 14.7317 29.9849 15.341 29.6691 15.875L29.4342 16.2679L29.6691 16.6607C29.9865 17.1917 30.1562 17.804 30.1562 18.4286C30.1562 20.1059 28.9375 21.5162 27.3125 21.8737V18.4286H25.6875V21.8737C24.0625 21.5162 22.8438 20.1105 22.8438 18.4286ZM9.84375 18.4286C9.84375 17.804 10.0151 17.1948 10.3309 16.6607L10.5658 16.2679L10.3309 15.875C10.0104 15.344 9.84375 14.7317 9.84375 14.1071C9.84375 12.1582 11.4846 10.5714 13.5 10.5714C15.5154 10.5714 17.1562 12.1582 17.1562 14.1071C17.1562 14.7317 16.9849 15.341 16.6691 15.875L16.4342 16.2679L16.6691 16.6607C16.9865 17.1917 17.1562 17.804 17.1562 18.4286C17.1562 20.1059 15.9375 21.5162 14.3125 21.8737V18.4286H12.6875V21.8737C11.0625 21.5162 9.84375 20.1105 9.84375 18.4286Z" fill="#F1FD53"/>
</svg>
