<svg width="40" height="40" viewBox="0 0 40 40" fill="none" xmlns="http://www.w3.org/2000/svg">
<path d="M0 10C0 4.47715 4.47715 0 10 0H40V30C40 35.5228 35.5228 40 30 40H0V10Z" fill="#6D6D6D"/>
<path d="M20 7.85C13.3006 7.85 7.85 13.3006 7.85 20C7.85 26.7002 13.3006 32.15 20 32.15C26.6994 32.15 32.15 26.7002 32.15 20C32.15 13.3006 26.6994 7.85 20 7.85ZM20 30.844C14.021 30.844 9.15599 25.979 9.15599 20C9.15599 14.0199 14.021 9.15599 20 9.15599C25.979 9.15599 30.844 14.021 30.844 20C30.844 25.979 25.979 30.844 20 30.844Z" fill="#F1FD53" stroke="#F1FD53" stroke-width="0.3"/>
<path d="M16.4764 19.5854C16.8109 19.5854 17.1027 19.406 17.3059 19.1373C17.509 18.8688 17.6301 18.5045 17.6301 18.1083C17.6301 17.7122 17.509 17.3479 17.3059 17.0794C17.1027 16.8107 16.8109 16.6312 16.4764 16.6312C16.1419 16.6312 15.8501 16.8107 15.6469 17.0794C15.4438 17.3479 15.3227 17.7122 15.3227 18.1083C15.3227 18.5045 15.4438 18.8688 15.6469 19.1373C15.8501 19.406 16.1419 19.5854 16.4764 19.5854Z" fill="#F1FD53" stroke="#F1FD53" stroke-width="0.3"/>
<path d="M23.5223 19.5854C23.8568 19.5854 24.1486 19.406 24.3518 19.1373C24.5549 18.8688 24.676 18.5045 24.676 18.1083C24.676 17.7122 24.5549 17.3479 24.3518 17.0794C24.1486 16.8107 23.8568 16.6312 23.5223 16.6312C23.1878 16.6312 22.896 16.8107 22.6928 17.0794C22.4897 17.3479 22.3686 17.7122 22.3686 18.1083C22.3686 18.5045 22.4897 18.8688 22.6928 19.1373C22.896 19.406 23.1878 19.5854 23.5223 19.5854Z" fill="#F1FD53" stroke="#F1FD53" stroke-width="0.3"/>
<path d="M26.9716 21.4482C26.9991 21.0882 26.7293 20.7747 26.3692 20.7485L26.3088 20.7441L26.3045 20.7477L26.822 21.437M26.9716 21.4482C26.9716 21.4483 26.9716 21.4484 26.9716 21.4485L26.822 21.437M26.9716 21.4482C26.9716 21.4481 26.9716 21.448 26.9716 21.4479L26.822 21.437M26.9716 21.4482C26.8787 22.7251 26.4533 23.9219 25.7411 24.9067L25.7411 24.9068C23.8818 27.4772 20.8103 27.687 19.8486 27.687C19.7716 27.687 19.7065 27.6859 19.6552 27.6835C17.3646 27.608 15.4414 26.69 14.2534 25.0855L14.2533 25.0854C13.2851 23.7764 13.0479 22.3689 13.0193 21.4203M26.822 21.437C26.7311 22.6879 26.3145 23.8578 25.6195 24.8189C23.8053 27.3271 20.8007 27.537 19.8486 27.537C19.7723 27.537 19.7094 27.5359 19.6611 27.5337C17.4077 27.4596 15.5304 26.558 14.3739 24.9962C13.4297 23.7197 13.1973 22.3454 13.1692 21.4158M13.0193 21.4203C13.0193 21.4204 13.0193 21.4205 13.0193 21.4207L13.1692 21.4158M13.0193 21.4203L13.1692 21.4158M13.0193 21.4203C13.0078 21.0599 13.2918 20.7606 13.6504 20.7483M13.1692 21.4158C13.1602 21.1385 13.3792 20.9072 13.6565 20.8982M13.6565 20.8982L13.6491 20.7484C13.6495 20.7484 13.6499 20.7483 13.6504 20.7483M13.6565 20.8982C13.9293 20.8847 14.1662 21.107 14.1741 21.3855L14.324 21.3812C14.324 21.3812 14.324 21.3811 14.324 21.3811C14.3138 21.0214 14.0089 20.7313 13.6504 20.7483M13.6565 20.8982L13.6516 20.7483C13.6512 20.7483 13.6508 20.7483 13.6504 20.7483M19.6995 26.3779C19.6995 26.3779 19.6994 26.3779 19.6994 26.3779L19.6946 26.5278L19.6995 26.3779Z" fill="#F1FD53" stroke="#F1FD53" stroke-width="0.3"/>
</svg>
