<svg width="40" height="40" viewBox="0 0 40 40" fill="none" xmlns="http://www.w3.org/2000/svg">
<path d="M0 10C0 4.47715 4.47715 0 10 0H40V30C40 35.5228 35.5228 40 30 40H0V10Z" fill="#6D6D6D"/>
<path d="M9.49891 17.3432H17.2325V9.91897C17.2325 9.3938 17.4592 8.91357 17.8191 8.56511L17.8212 8.56312L17.8305 8.55313C18.1945 8.21268 18.6896 8 19.2314 8H20.7706C21.3167 8 21.8179 8.21765 22.1809 8.5631L22.183 8.5651L22.1924 8.57508C22.547 8.92353 22.7696 9.39879 22.7696 9.91895V17.3432H30.5011C31.0481 17.3432 31.5484 17.5609 31.9113 17.9063L31.9134 17.9083L31.9238 17.9173C32.2785 18.2657 32.5 18.742 32.5 19.2612V20.7398C32.5 21.264 32.2733 21.7452 31.9134 22.0937L31.9114 22.0957L31.901 22.1047C31.538 22.4451 31.0429 22.6588 30.5011 22.6588H22.7696V30.081C22.7696 30.6052 22.5418 31.0864 22.183 31.4349L22.181 31.4369L22.1706 31.4459C21.8076 31.7863 21.3115 32 20.7707 32H19.2315C18.6844 32 18.1842 31.7813 17.8212 31.4369L17.8087 31.4249C17.4541 31.0765 17.2325 30.6012 17.2325 30.0811V22.6588H9.49893C8.95292 22.6588 8.45163 22.4402 8.08866 22.0957L8.08658 22.0937L8.07722 22.0837C7.72258 21.7353 7.5 21.259 7.5 20.7399V19.2612C7.5 18.737 7.72672 18.2568 8.08656 17.9083L8.09904 17.8964C8.46202 17.5559 8.95707 17.3432 9.49891 17.3432ZM17.8731 18.5723H9.49891C9.30755 18.5723 9.13075 18.6472 9.00074 18.763L8.99138 18.773L8.9893 18.775C8.86345 18.8988 8.78129 19.0725 8.78129 19.2612V20.7399C8.78129 20.9236 8.85825 21.0933 8.9789 21.2171L8.99138 21.2291C9.12034 21.3499 9.30235 21.4288 9.49889 21.4288H17.8731C18.2257 21.4288 18.5127 21.7043 18.5127 22.0438V30.081C18.5127 30.2647 18.5907 30.4344 18.7113 30.5592L18.7217 30.5682L18.7238 30.5702C18.8528 30.691 19.0348 30.7699 19.2313 30.7699H20.7706C20.9619 30.7699 21.1387 30.696 21.2687 30.5802L21.2781 30.5702L21.2802 30.5682C21.406 30.4444 21.4882 30.2697 21.4882 30.081V22.0438C21.4882 21.7043 21.7752 21.4288 22.1288 21.4288H30.5009C30.6922 21.4288 30.869 21.3549 30.9991 21.2391L31.0084 21.2291L31.0105 21.2271C31.1363 21.1033 31.2185 20.9286 31.2185 20.7399V19.2612C31.2185 19.0775 31.1415 18.9088 31.0209 18.784L31.0105 18.775L31.0084 18.773C30.8794 18.6522 30.6974 18.5723 30.5009 18.5723H22.1288C21.7752 18.5723 21.4882 18.2967 21.4882 17.9583V9.91906C21.4882 9.73536 21.4112 9.56563 21.2895 9.44082L21.2781 9.42984C21.1491 9.30903 20.9671 9.23015 20.7706 9.23015H19.2314C19.039 9.23015 18.8632 9.30404 18.7332 9.41985L18.7238 9.42984L18.7218 9.43184C18.5959 9.55564 18.5127 9.73037 18.5127 9.91905V17.9583C18.5127 18.2967 18.2257 18.5723 17.8731 18.5723Z" fill="#F1FD53"/>
</svg>
