<svg width="300" height="195" viewBox="0 0 300 195" fill="none" xmlns="http://www.w3.org/2000/svg">
<path d="M36.7075 34.0216C38.2991 28.8487 40.4876 24.1732 43.273 19.9951C46.2574 15.817 49.7391 12.2358 53.7183 9.25147C57.8963 6.26712 62.3729 3.97912 67.1478 2.38747C71.9228 0.795823 76.9962 0 82.368 0H280.23L273.366 22.9795C271.576 28.7492 268.293 33.3252 263.518 36.7075C258.743 40.0897 253.471 41.7809 247.701 41.7809H85.9492C82.9649 41.7809 80.2789 42.6762 77.8915 44.4668C75.504 46.2574 73.9123 48.5454 73.1165 51.3308L71.6243 55.5089H263.219L243.821 119.374C240.837 129.521 235.167 137.678 226.81 143.846C218.454 150.013 208.904 153.097 198.161 153.097H0L7.16243 130.416C8.75409 124.646 11.9374 120.07 16.7123 116.688C21.4873 113.107 26.8591 111.316 32.8278 111.316H194.579C197.564 111.316 200.15 110.421 202.339 108.63C204.726 106.84 206.417 104.552 207.412 101.766L208.904 97.2897H17.3092L36.7075 34.0216Z" fill="#F1FD53"/>
<g clip-path="url(#clip0_3976_30902)">
<path d="M232 195C258.51 195 280 173.51 280 147C280 120.49 258.51 99 232 99C205.49 99 184 120.49 184 147C184 173.51 205.49 195 232 195Z" fill="url(#paint0_linear_3976_30902)"/>
<path fill-rule="evenodd" clip-rule="evenodd" d="M205.732 146.492C219.725 140.395 229.056 136.376 233.724 134.434C247.055 128.89 249.824 127.927 251.63 127.895C252.027 127.888 252.915 127.986 253.49 128.453C253.975 128.847 254.109 129.379 254.173 129.753C254.237 130.126 254.317 130.977 254.253 131.642C253.531 139.232 250.405 157.651 248.815 166.152C248.142 169.749 246.817 170.955 245.535 171.073C242.747 171.33 240.631 169.231 237.931 167.461C233.706 164.692 231.32 162.968 227.219 160.266C222.48 157.143 225.552 155.426 228.253 152.621C228.96 151.887 241.241 140.716 241.479 139.703C241.509 139.576 241.536 139.103 241.255 138.854C240.975 138.604 240.561 138.69 240.262 138.758C239.838 138.854 233.089 143.315 220.015 152.14C218.099 153.455 216.364 154.096 214.81 154.063C213.096 154.026 209.799 153.094 207.348 152.297C204.342 151.32 201.953 150.803 202.161 149.144C202.269 148.279 203.46 147.395 205.732 146.492Z" fill="white"/>
</g>
<defs>
<linearGradient id="paint0_linear_3976_30902" x1="4984" y1="99" x2="4984" y2="9627.8" gradientUnits="userSpaceOnUse">
<stop stop-color="#2AABEE"/>
<stop offset="1" stop-color="#229ED9"/>
</linearGradient>
<clipPath id="clip0_3976_30902">
<rect width="96" height="96" fill="white" transform="translate(184 99)"/>
</clipPath>
</defs>
</svg>
