<svg width="36" height="30" viewBox="0 0 36 30" fill="none" xmlns="http://www.w3.org/2000/svg">
<path d="M32.5514 0.290882C27.859 2.23403 7.73981 10.5678 2.18069 12.8393C-1.5476 14.2943 0.634789 15.6582 0.634789 15.6582C0.634789 15.6582 3.81721 16.7492 6.5451 17.5677C9.27299 18.3861 10.7279 17.4767 10.7279 17.4767L23.5489 8.8381C28.0953 5.74667 27.0043 8.2926 25.9133 9.38361C23.5489 11.748 19.6391 15.4759 16.3657 18.4767C14.9107 19.7497 15.6382 20.8411 16.2747 21.3866C18.639 23.387 25.0948 27.4788 25.4588 27.7518C27.3798 29.1116 31.1583 31.0693 31.733 26.9333L34.0064 12.6574C34.7338 7.83808 35.4613 3.38232 35.5523 2.10935C35.8248 -0.982085 32.5514 0.290882 32.5514 0.290882Z" fill="white"/>
</svg>
