<svg width="208" height="74" viewBox="0 0 208 74" fill="none" xmlns="http://www.w3.org/2000/svg">
<path d="M15.6976 49.7277C13.0293 49.7277 10.6903 49.2599 8.68045 48.3243C6.70526 47.354 5.18055 46.0026 4.10632 44.2699C3.06675 42.5373 2.54696 40.4928 2.54696 38.1364C2.54696 37.0969 2.65092 36.04 2.85883 34.9657L5.45777 21.3993H15.9055L13.0467 36.1093C12.9774 36.3865 12.9427 36.785 12.9427 37.3048C12.9427 38.3097 13.2026 39.124 13.7224 39.7478C14.2768 40.3369 15.0565 40.6314 16.0614 40.6314C17.0317 40.6314 17.846 40.2849 18.5044 39.5918C19.1975 38.8641 19.648 37.9632 19.8559 36.889L22.8187 21.3993H33.2664L30.1996 37.3048C29.5066 40.9779 27.9472 43.9754 25.5216 46.2971C23.0959 48.5842 19.8212 49.7277 15.6976 49.7277ZM59.2858 21.1394L57.5705 30.1317H53.6721C51.9048 30.1317 50.3801 30.6342 49.098 31.6391C47.8505 32.644 47.0881 33.9435 46.8109 35.5375L44.2639 49H33.8162L39.1181 21.3993H48.5782L48.0584 23.9982C49.098 22.9933 50.2242 22.2656 51.437 21.8151C52.6499 21.3646 54.0706 21.1394 55.6993 21.1394H59.2858ZM80.1285 20.6716C82.2769 20.6716 84.2521 21.2434 86.054 22.3869C87.856 23.4958 89.2767 25.0205 90.3163 26.961C91.3559 28.9016 91.8757 31.0154 91.8757 33.3024C91.8757 36.2479 91.1999 38.9854 89.8485 41.5151C88.497 44.0447 86.6431 46.0545 84.2868 47.5446C81.9304 49 79.3488 49.7277 76.5419 49.7277C72.8688 49.7277 70.0273 48.4802 68.0174 45.9852L67.3937 49H57.9335L65.2106 11.5753H75.6063L73.4752 22.6468C75.3464 21.33 77.5642 20.6716 80.1285 20.6716ZM75.5024 40.7354C77.3043 40.7354 78.7597 40.1116 79.8686 38.8641C81.0121 37.6167 81.5839 36.1613 81.5839 34.4979C81.5839 33.1465 81.1161 32.0203 80.1804 31.1193C79.2448 30.1837 77.9973 29.7159 76.438 29.7159C74.6014 29.7159 73.1287 30.3396 72.0198 31.5871C70.9456 32.8 70.4084 34.2554 70.4084 35.9533C70.4084 37.3048 70.8763 38.4483 71.8119 39.3839C72.7821 40.2849 74.0123 40.7354 75.5024 40.7354ZM119.08 21.3993H128.541L123.187 49H113.779L114.246 46.7129C113.38 47.5792 112.289 48.307 110.972 48.896C109.655 49.4505 108.113 49.7277 106.346 49.7277C104.197 49.7277 102.222 49.1733 100.42 48.0644C98.6181 46.9209 97.1801 45.3788 96.1058 43.4383C95.0663 41.4977 94.5465 39.3839 94.5465 37.0969C94.5465 34.1514 95.2222 31.4139 96.5736 28.8842C97.9251 26.3546 99.779 24.3621 102.135 22.9067C104.492 21.4166 107.091 20.6716 109.932 20.6716C111.977 20.6716 113.692 21.0354 115.078 21.7631C116.499 22.4562 117.642 23.3398 118.509 24.4141L119.08 21.3993ZM110.036 40.7354C111.838 40.7354 113.293 40.1116 114.402 38.8641C115.511 37.6167 116.066 36.1439 116.066 34.446C116.066 33.0945 115.598 31.9683 114.662 31.0673C113.727 30.1664 112.496 29.7159 110.972 29.7159C109.17 29.7159 107.697 30.3396 106.554 31.5871C105.445 32.8 104.89 34.238 104.89 35.9014C104.89 37.2528 105.358 38.3963 106.294 39.332C107.229 40.2676 108.477 40.7354 110.036 40.7354ZM150.868 20.6716C152.843 20.6716 154.593 21.0874 156.118 21.9191C157.677 22.7507 158.89 23.9462 159.756 25.5056C160.657 27.0303 161.108 28.8149 161.108 30.8594C161.108 31.9336 161.021 32.9039 160.848 33.7702L157.989 49H147.541L150.296 34.6539C150.365 34.342 150.4 33.9262 150.4 33.4064C150.4 32.2975 150.106 31.4139 149.516 30.7555C148.962 30.0971 148.13 29.7679 147.021 29.7679C145.878 29.7679 144.908 30.1664 144.111 30.9634C143.348 31.7604 142.846 32.7826 142.603 34.0301L139.744 49H129.297L134.599 21.3993H144.059L143.643 23.5824C145.999 21.6419 148.408 20.6716 150.868 20.6716Z" fill="white"/>
<path d="M124.683 36.9829C125.627 37.0528 126.064 37.3502 125.994 37.8748C125.925 38.3645 125.575 38.8717 124.945 39.3964C124.35 39.8861 123.703 40.2184 123.004 40.3933C122.339 40.5332 121.85 40.3058 121.535 39.7112C121.465 39.5363 121.482 39.3789 121.587 39.239C121.727 39.0641 121.902 38.9242 122.112 38.8193C122.357 38.6793 122.567 38.5569 122.741 38.452C122.881 38.417 122.986 38.382 123.056 38.347C123.126 38.3121 123.161 38.2771 123.161 38.2421C123.196 37.8573 123.354 37.5425 123.633 37.2977C123.913 37.0528 124.263 36.9479 124.683 36.9829ZM112.982 61.9052C111.618 61.9052 110.814 61.468 110.569 60.5935C110.324 59.719 110.446 58.6172 110.936 57.288C111.391 55.9238 112.038 54.5072 112.877 53.0381C113.717 51.534 114.556 50.1698 115.396 48.9456C116.235 47.6864 116.9 46.7244 117.39 46.0598C117.53 45.815 117.652 45.6401 117.757 45.5352C117.547 44.9755 117.74 44.3634 118.334 43.6988C118.929 42.9992 119.628 42.492 120.433 42.1772C121.237 41.8274 121.815 41.8799 122.164 42.3346C122.409 42.7194 122.462 43.0867 122.322 43.4364C122.182 43.7862 121.989 44.1185 121.745 44.4333C121.675 44.5033 121.605 44.5907 121.535 44.6957C120.206 46.5845 118.754 48.7007 117.18 51.0443C115.641 53.3529 114.487 55.2942 113.717 56.8683C113.122 58.2324 113.49 58.9845 114.819 59.1244C116.183 59.2643 117.932 59.0544 120.066 58.4948C122.234 57.9351 124.211 57.3405 125.994 56.7109C127.813 56.0463 128.898 55.609 129.248 55.3991C129.632 55.1893 129.93 55.1543 130.139 55.2942C130.384 55.4341 130.489 55.6615 130.454 55.9763C130.419 56.2561 130.174 56.5534 129.72 56.8683C127.446 58.1275 124.473 59.2818 120.8 60.3311C117.162 61.3805 114.556 61.9052 112.982 61.9052ZM125.103 61.433C125.802 59.719 126.869 57.6378 128.303 55.1893C129.702 52.7408 131.066 50.3972 132.396 48.1586C133.13 46.9693 133.76 45.9374 134.284 45.0629C134.075 44.7831 133.97 44.4858 133.97 44.171C133.97 43.8562 134.075 43.5764 134.284 43.3315C135.194 42.3521 135.858 41.8099 136.278 41.705L136.383 41.6525C136.698 41.5476 136.978 41.5476 137.223 41.6525C137.747 41.8274 138.08 42.1597 138.22 42.6494C138.22 42.6844 138.22 42.7369 138.22 42.8068C138.22 42.8418 138.22 42.8768 138.22 42.9118C138.22 43.2266 138.132 43.5414 137.957 43.8562C136.663 45.9549 135.211 48.3509 133.602 51.0443C132.028 53.7027 130.629 56.1162 129.405 58.2849C130.244 57.4804 131.591 56.3261 133.445 54.822C135.334 53.2829 137.205 51.8663 139.059 50.5721C140.948 49.2429 142.295 48.5433 143.099 48.4734C144.358 48.5083 145.075 49.0155 145.25 49.9949C145.425 50.9394 145.425 52.0062 145.25 53.1955C145.145 54.1049 145.128 54.892 145.198 55.5566C145.268 56.1862 145.618 56.501 146.247 56.501C146.912 56.501 148.031 55.9763 149.605 54.9269C150.06 54.6471 150.375 54.5772 150.55 54.7171C150.759 54.857 150.829 55.1018 150.759 55.4516C150.689 55.7664 150.497 56.0288 150.182 56.2386C147.034 58.2324 144.953 58.6172 143.939 57.3929C142.924 56.1337 142.662 54 143.152 50.9918C142.417 51.0618 141.315 51.6914 139.846 52.8807C138.377 54.035 136.785 55.3817 135.071 56.9207C133.567 58.2499 132.133 59.4742 130.769 60.5935C129.405 61.7128 128.251 62.5173 127.306 63.007C126.607 63.3218 126.012 63.3218 125.522 63.007C125.033 62.6922 124.893 62.1675 125.103 61.433ZM141.735 72.6611C141.315 73.0459 140.895 73.1159 140.476 72.871C140.056 72.6611 139.759 72.2939 139.584 71.7692C139.374 71.2445 139.409 70.7373 139.689 70.2476C139.864 69.8628 143.099 64.5985 149.395 54.4547C149.43 54.2798 149.518 54.1049 149.658 53.93C149.797 53.7202 149.937 53.5453 150.077 53.4054C154.345 46.5146 158.944 39.239 163.876 31.5787C168.808 23.8834 173.286 17.1675 177.308 11.4309C181.331 5.69445 184.077 2.30151 185.546 1.25215C186.98 0.902366 187.854 1.09475 188.169 1.8293C188.519 2.56385 188.536 3.56075 188.222 4.81998C187.942 6.04423 187.557 7.23351 187.067 8.3878C186.613 9.50712 186.28 10.2767 186.07 10.6964C183.307 16.258 179.005 23.0614 173.163 31.1065C167.357 39.1516 160.466 46.9518 152.491 54.5072C151.372 56.2911 150.322 57.9351 149.343 59.4392C148.084 61.328 147.244 62.6922 146.824 63.5317C146.37 64.3712 146.702 64.3712 147.821 63.5317C148.906 62.7272 151.144 60.7684 154.537 57.6553C164.156 48.7007 171.204 43.4364 175.682 41.8624C176.381 41.6875 176.836 41.775 177.046 42.1247C177.291 42.4395 177.466 42.8593 177.571 43.384C177.606 43.4539 177.623 43.5414 177.623 43.6463C177.763 44.7656 176.784 45.9899 174.685 47.3191C172.586 48.6133 170.382 49.8026 168.074 50.8869C166.85 51.4815 165.835 52.0062 165.031 52.4609C164.436 52.9506 163.999 53.4229 163.719 53.8776C163.474 54.3323 163.212 54.9619 162.932 55.7664C162.372 57.1656 161.883 58.8096 161.463 60.6984C161.043 62.5523 161.096 64.1788 161.62 65.5779C162.145 66.9771 163.562 67.6592 165.87 67.6242C166.29 67.5892 166.605 67.6767 166.815 67.8865C167.059 68.0964 167.112 68.3238 166.972 68.5686C166.832 68.8135 166.43 68.9709 165.765 69.0408C162.267 69.1458 160.029 68.2888 159.049 66.4699C158.07 64.651 158 62.2899 158.839 59.3867C159.154 58.2674 159.224 57.6728 159.049 57.6028C158.909 57.4979 158.367 57.8826 157.423 58.7571C154.974 60.9957 152.316 63.3568 149.448 65.8403C146.614 68.3588 144.428 70.2826 142.889 71.6118C142.225 72.2064 141.84 72.5562 141.735 72.6611ZM162.25 38.9767C160.711 41.3202 159.836 42.7544 159.626 43.279C159.452 43.7687 160.396 42.7893 162.46 40.3408C167.322 34.6393 171.484 29.2001 174.947 24.0233C178.41 18.8115 181.103 14.2817 183.027 10.4341C183.762 8.96495 184.251 7.91559 184.496 7.28598C184.741 6.65636 184.794 6.34155 184.654 6.34155C184.549 6.34155 184.321 6.55142 183.972 6.97117C183.657 7.35593 183.272 7.86312 182.817 8.49274C182.363 9.12236 181.908 9.75197 181.453 10.3816C181.243 10.6614 181.051 10.9238 180.876 11.1686C175.559 18.5841 169.351 27.8534 162.25 38.9767Z" fill="#FC1D00"/>
</svg>
