<svg width="161" height="58" viewBox="0 0 161 58" fill="none" xmlns="http://www.w3.org/2000/svg">
<path d="M12.1505 38.5633C10.0852 38.5633 8.27469 38.2012 6.71899 37.477C5.19012 36.7259 4.00994 35.6799 3.17844 34.3388C2.37378 32.9976 1.97144 31.4151 1.97144 29.5912C1.97144 28.7865 2.05191 27.9685 2.21284 27.137L4.22452 16.636H12.3114L10.0986 28.0221C10.045 28.2367 10.0181 28.5451 10.0181 28.9475C10.0181 29.7253 10.2193 30.3556 10.6216 30.8384C11.0508 31.2944 11.6543 31.5224 12.4321 31.5224C13.1832 31.5224 13.8135 31.2542 14.3231 30.7177C14.8596 30.1545 15.2083 29.4571 15.3692 28.6256L17.6625 16.636H25.7494L23.3757 28.9475C22.8392 31.7906 21.6322 34.1108 19.7546 35.9079C17.8771 37.6781 15.3424 38.5633 12.1505 38.5633ZM45.8894 16.4349L44.5617 23.3952H41.5442C40.1763 23.3952 38.9961 23.7842 38.0037 24.562C37.0381 25.3399 36.448 26.3457 36.2334 27.5795L34.2619 38H26.175L30.2788 16.636H37.6013L37.199 18.6477C38.0037 17.8698 38.8754 17.3066 39.8142 16.9579C40.7529 16.6092 41.8527 16.4349 43.1133 16.4349H45.8894ZM62.0224 16.0728C63.6854 16.0728 65.2143 16.5153 66.609 17.4005C68.0038 18.2588 69.1035 19.439 69.9082 20.941C70.7128 22.4431 71.1152 24.0792 71.1152 25.8495C71.1152 28.1294 70.5921 30.2484 69.5461 32.2064C68.5 34.1644 67.065 35.7201 65.2411 36.8735C63.4172 38 61.4189 38.5633 59.2463 38.5633C56.4031 38.5633 54.2037 37.5977 52.648 35.6665L52.1652 38H44.8427L50.4754 9.0319H58.5221L56.8725 17.6016C58.3209 16.5824 60.0376 16.0728 62.0224 16.0728ZM58.4416 31.6029C59.8364 31.6029 60.9629 31.1201 61.8212 30.1545C62.7064 29.1889 63.149 28.0623 63.149 26.7749C63.149 25.7288 62.7869 24.8571 62.0626 24.1597C61.3384 23.4355 60.3728 23.0734 59.1658 23.0734C57.7443 23.0734 56.6043 23.5562 55.746 24.5218C54.9145 25.4606 54.4988 26.5871 54.4988 27.9014C54.4988 28.9475 54.8609 29.8326 55.5851 30.5568C56.3361 31.2542 57.2883 31.6029 58.4416 31.6029ZM92.1727 16.636H99.4952L95.3511 38H88.0689L88.431 36.2297C87.7604 36.9003 86.9155 37.4636 85.8963 37.9195C84.877 38.3487 83.6834 38.5633 82.3155 38.5633C80.6525 38.5633 79.1236 38.1341 77.7289 37.2758C76.3341 36.3907 75.221 35.1971 74.3895 33.695C73.5848 32.193 73.1825 30.5568 73.1825 28.7865C73.1825 26.5066 73.7055 24.3877 74.7516 22.4296C75.7977 20.4716 77.2327 18.9293 79.0566 17.8028C80.8805 16.6494 82.8922 16.0728 85.0916 16.0728C86.6741 16.0728 88.0018 16.3544 89.0747 16.9177C90.1744 17.4541 91.0596 18.1381 91.7301 18.9696L92.1727 16.636ZM85.1721 31.6029C86.5668 31.6029 87.6934 31.1201 88.5517 30.1545C89.41 29.1889 89.8392 28.0489 89.8392 26.7346C89.8392 25.6886 89.4771 24.8168 88.7529 24.1195C88.0286 23.4221 87.0765 23.0734 85.8963 23.0734C84.5015 23.0734 83.3616 23.5562 82.4764 24.5218C81.6181 25.4606 81.189 26.5737 81.189 27.8612C81.189 28.9072 81.5511 29.7924 82.2753 30.5166C82.9995 31.2408 83.9651 31.6029 85.1721 31.6029ZM116.777 16.0728C118.306 16.0728 119.661 16.3946 120.841 17.0384C122.048 17.6821 122.987 18.6075 123.657 19.8145C124.355 20.9947 124.703 22.376 124.703 23.9585C124.703 24.79 124.636 25.541 124.502 26.2116L122.289 38H114.202L116.335 26.8956C116.388 26.6542 116.415 26.3323 116.415 25.93C116.415 25.0716 116.187 24.3877 115.731 23.878C115.302 23.3684 114.658 23.1136 113.8 23.1136C112.915 23.1136 112.164 23.4221 111.547 24.039C110.957 24.6559 110.568 25.4472 110.38 26.4128L108.167 38H100.08L104.184 16.636H111.507L111.185 18.3258C113.009 16.8238 114.873 16.0728 116.777 16.0728Z" fill="#FC1D00"/>
<path d="M96.5096 29.0205C97.2406 29.0747 97.579 29.3048 97.5249 29.7109C97.4707 30.09 97.2 30.4826 96.7126 30.8887C96.2523 31.2677 95.7515 31.525 95.21 31.6603C94.6955 31.7686 94.3165 31.5926 94.0728 31.1324C94.0187 30.997 94.0322 30.8752 94.1134 30.7669C94.2217 30.6315 94.3571 30.5232 94.5196 30.442C94.7091 30.3337 94.8715 30.2389 95.0069 30.1577C95.1152 30.1306 95.1964 30.1035 95.2506 30.0765C95.3047 30.0494 95.3318 30.0223 95.3318 29.9952C95.3589 29.6974 95.4807 29.4537 95.6973 29.2642C95.9139 29.0747 96.1847 28.9935 96.5096 29.0205ZM87.453 48.3113C86.3971 48.3113 85.7744 47.9729 85.5849 47.296C85.3954 46.6192 85.4901 45.7663 85.8692 44.7375C86.2211 43.6815 86.722 42.585 87.3718 41.4479C88.0216 40.2837 88.6714 39.2277 89.3212 38.2801C89.971 37.3054 90.4854 36.5609 90.8645 36.0464C90.9728 35.8569 91.0675 35.7215 91.1487 35.6403C90.9863 35.2071 91.1352 34.7333 91.5955 34.2189C92.0558 33.6774 92.5973 33.2848 93.22 33.0411C93.8427 32.7704 94.2894 32.811 94.5602 33.163C94.7497 33.4608 94.7903 33.7451 94.682 34.0158C94.5737 34.2866 94.4248 34.5438 94.2353 34.7875C94.1811 34.8416 94.127 34.9093 94.0728 34.9905C93.044 36.4526 91.9204 38.0906 90.702 39.9046C89.5107 41.6915 88.6173 43.1942 88.0216 44.4126C87.5613 45.4685 87.8456 46.0506 88.8745 46.1589C89.9304 46.2672 91.2841 46.1047 92.9357 45.6715C94.6143 45.2383 96.1441 44.7781 97.5249 44.2907C98.9328 43.7763 99.7721 43.4379 100.043 43.2754C100.341 43.113 100.571 43.0859 100.733 43.1942C100.923 43.3025 101.004 43.4785 100.977 43.7222C100.95 43.9388 100.76 44.1689 100.408 44.4126C98.6485 45.3873 96.3471 46.2807 93.5043 47.093C90.6885 47.9052 88.6714 48.3113 87.453 48.3113ZM96.8345 47.9458C97.376 46.6192 98.2017 45.0082 99.3118 43.113C100.395 41.2177 101.451 39.4037 102.48 37.6709C103.048 36.7504 103.535 35.9517 103.942 35.2748C103.779 35.0582 103.698 34.8281 103.698 34.5844C103.698 34.3407 103.779 34.1241 103.942 33.9346C104.646 33.1765 105.16 32.7569 105.485 32.6756L105.566 32.635C105.81 32.5538 106.026 32.5538 106.216 32.635C106.622 32.7704 106.879 33.0276 106.988 33.4067C106.988 33.4337 106.988 33.4743 106.988 33.5285C106.988 33.5556 106.988 33.5826 106.988 33.6097C106.988 33.8534 106.92 34.0971 106.784 34.3407C105.783 35.9652 104.659 37.8198 103.414 39.9046C102.195 41.9623 101.112 43.8305 100.165 45.5091C100.814 44.8864 101.857 43.9929 103.292 42.8287C104.754 41.6374 106.202 40.5409 107.637 39.5391C109.099 38.5103 110.142 37.9688 110.764 37.9146C111.739 37.9417 112.294 38.3343 112.43 39.0924C112.565 39.8234 112.565 40.6492 112.43 41.5697C112.348 42.2737 112.335 42.8828 112.389 43.3973C112.443 43.8846 112.714 44.1283 113.201 44.1283C113.716 44.1283 114.582 43.7222 115.8 42.9099C116.152 42.6933 116.396 42.6392 116.531 42.7475C116.694 42.8558 116.748 43.0453 116.694 43.316C116.64 43.5597 116.491 43.7628 116.247 43.9252C113.81 45.4685 112.199 45.7663 111.414 44.8187C110.629 43.844 110.426 42.1924 110.805 39.864C110.236 39.9181 109.384 40.4055 108.246 41.326C107.109 42.2195 105.877 43.2619 104.551 44.4532C103.387 45.482 102.276 46.4296 101.221 47.296C100.165 48.1624 99.2712 48.7851 98.5402 49.1642C97.9987 49.4079 97.5384 49.4079 97.1594 49.1642C96.7803 48.9205 96.672 48.5144 96.8345 47.9458ZM109.709 56.6368C109.384 56.9347 109.059 56.9888 108.734 56.7993C108.409 56.6368 108.179 56.3525 108.043 55.9464C107.881 55.5403 107.908 55.1477 108.125 54.7687C108.26 54.4708 110.764 50.3961 115.638 42.5444C115.665 42.409 115.733 42.2737 115.841 42.1383C115.949 41.9758 116.058 41.8405 116.166 41.7322C119.469 36.3984 123.029 30.7669 126.847 24.8375C130.664 18.881 134.13 13.6827 137.244 9.24239C140.357 4.80213 142.483 2.17587 143.62 1.36363C144.73 1.09288 145.407 1.24179 145.65 1.81036C145.921 2.37893 145.935 3.15056 145.691 4.12526C145.474 5.07287 145.177 5.99342 144.797 6.88689C144.445 7.75328 144.188 8.34892 144.026 8.67382C141.887 12.9787 138.557 18.2448 134.035 24.472C129.541 30.6992 124.207 36.7369 118.034 42.585C117.168 43.9658 116.355 45.2383 115.597 46.4026C114.623 47.8646 113.973 48.9205 113.648 49.5703C113.296 50.2201 113.553 50.2201 114.42 49.5703C115.259 48.9476 116.992 47.4314 119.618 45.0217C127.063 38.0906 132.519 34.0158 135.985 32.7975C136.526 32.6621 136.878 32.7298 137.041 33.0005C137.23 33.2442 137.365 33.5691 137.447 33.9752C137.474 34.0294 137.487 34.0971 137.487 34.1783C137.596 35.0447 136.837 35.9923 135.213 37.0211C133.589 38.0229 131.883 38.9435 130.096 39.7828C129.148 40.243 128.363 40.6492 127.74 41.0011C127.28 41.3802 126.942 41.7457 126.725 42.0977C126.536 42.4496 126.332 42.937 126.116 43.5597C125.683 44.6427 125.304 45.9152 124.979 47.3773C124.654 48.8122 124.694 50.0712 125.101 51.1542C125.507 52.2372 126.603 52.7651 128.39 52.7381C128.715 52.711 128.959 52.7787 129.121 52.9411C129.311 53.1036 129.351 53.2796 129.243 53.4691C129.135 53.6586 128.823 53.7804 128.309 53.8346C125.601 53.9158 123.869 53.2525 123.111 51.8446C122.352 50.4367 122.298 48.6092 122.948 46.3619C123.192 45.4956 123.246 45.0353 123.111 44.9811C123.002 44.8999 122.583 45.1977 121.852 45.8746C119.956 47.6074 117.899 49.4349 115.679 51.3572C113.485 53.3066 111.793 54.7957 110.602 55.8246C110.088 56.2849 109.79 56.5556 109.709 56.6368ZM125.588 30.5638C124.397 32.3778 123.72 33.4879 123.557 33.894C123.422 34.273 124.153 33.515 125.75 31.6197C129.514 27.2065 132.736 22.9964 135.416 18.9893C138.096 14.9552 140.181 11.449 141.67 8.47076C142.239 7.33362 142.618 6.52138 142.807 6.03403C142.997 5.54668 143.038 5.30301 142.929 5.30301C142.848 5.30301 142.672 5.46546 142.401 5.79036C142.158 6.08818 141.86 6.48076 141.508 6.96811C141.156 7.45546 140.804 7.9428 140.452 8.43015C140.29 8.64675 140.141 8.84981 140.005 9.03933C135.89 14.7792 131.084 21.954 125.588 30.5638Z" fill="#0E2FA6"/>
</svg>
