<svg width="100" height="100" viewBox="0 0 100 100" fill="none" xmlns="http://www.w3.org/2000/svg">
<path d="M50.0404 83C50.0404 83 63.2081 75.396 68.459 72.1477L68.6983 72.5386C68.6986 72.5384 68.6989 72.5382 68.6992 72.538C77.6257 67.0742 83.4583 57.7056 83.4583 47.1208C83.4583 30.219 68.43 16.5417 50.0404 16.5417C31.57 16.5417 16.5417 30.219 16.5417 47.1946C16.5417 57.7833 22.4585 67.0751 31.2978 72.6099L31.2977 72.61L31.3025 72.6129C33.9736 74.2402 38.603 76.9375 42.5607 79.2256C44.5404 80.3702 46.3533 81.4132 47.6714 82.1701C48.3304 82.5486 48.8658 82.8555 49.2363 83.0678L49.6635 83.3124L49.7749 83.3761L49.8033 83.3924L49.8104 83.3965L49.8123 83.3975L49.8127 83.3978C49.8128 83.3978 49.8129 83.3979 50.0404 83ZM50.0404 83L50.2696 83.3969L50.0415 83.5286L49.8129 83.3979L50.0404 83ZM66.4416 69.321L66.4398 69.3221C62.8074 71.5795 55.2394 75.9351 51.0559 78.3429C50.6899 78.5535 50.3498 78.7493 50.0405 78.9274C46.2011 76.7135 37.5929 71.7057 33.6377 69.3201C25.5224 64.3022 20.6897 56.0281 20.6897 47.1208C20.6897 32.4999 33.8539 20.4114 50.0404 20.4114C66.226 20.4114 79.3103 32.4253 79.3103 47.1208C79.3103 56.0313 74.4746 64.3785 66.4416 69.321Z" fill="#1A1A1A" stroke="#1A1A1A" stroke-width="0.916667"/>
<path d="M50.0341 28.651C38.915 28.651 29.7839 36.9391 29.7839 47.1966C29.7839 57.453 38.8329 65.7422 50.0341 65.7422C61.1533 65.7422 70.2844 57.4542 70.2844 47.1966C70.2844 36.9391 61.1533 28.651 50.0341 28.651ZM50.0341 61.8725C41.119 61.8725 33.9319 55.2478 33.9319 47.1966C33.9319 39.1455 41.119 32.5207 50.0341 32.5207C58.9492 32.5207 66.1364 39.1455 66.1364 47.1966C66.1364 55.2478 58.9492 61.8725 50.0341 61.8725Z" fill="#1A1A1A" stroke="#1A1A1A" stroke-width="0.916667"/>
</svg>
