<svg width="714" height="650" viewBox="0 0 714 650" fill="none" xmlns="http://www.w3.org/2000/svg">
<path d="M268.446 46.3849C410.134 -15.9881 525.793 57.6045 598.892 163.695C635.014 216.12 669.701 282.378 680.621 359.32C685.07 390.671 674.14 427.321 662.415 461.873C642.535 520.457 608.419 552.942 565.683 577.062C445.048 645.147 334.826 577.552 246.587 533.202C122.211 470.689 35.5606 348.779 4.97759 172.856C-0.918802 138.937 -1.85377 106.593 25.9141 72.1408C42.6157 51.4186 62.9569 40.5922 82.2959 31.4749C133.221 7.46619 183.347 -2.73668 229.47 3.48976C308.613 14.1738 380.674 49.3831 441.839 98.5299C540.971 178.183 626.999 289.973 689.944 417.577C701.93 441.876 718.45 472.631 709.31 511.186C702.159 541.349 685.538 577.891 665.073 600.881C617.951 653.813 550.974 652.772 508.603 642.971C432.732 625.42 361.032 594.319 293.914 557.143C251.812 533.824 214.322 503.259 179.761 467.266C134.071 419.682 85.2852 369.149 56.77 296.37M56.77 296.37C42.0829 258.885 29.0685 199.806 52.898 150.574C92.9218 67.8843 195.151 62.4429 248.532 52.5076C330.972 37.1638 406.173 48.1428 474.627 77.709C523.256 98.7126 566.896 129.284 598.988 177.436C617.313 204.931 627.816 227.977 640.023 261.637C648.27 284.377 660.105 314.558 655.224 346.511C644.648 415.73 591.394 490.001 540.558 518.133C477.199 553.194 417.337 550.721 364.067 535.287C317.841 521.894 268.272 504.497 223.38 475.685C190.548 454.614 165.086 426.488 140.965 405.331C99.4389 368.908 88.0319 349.047 56.77 296.37Z" stroke="#FC1D00" stroke-width="3" stroke-linecap="round"/>
</svg>
