<svg width="100" height="100" viewBox="0 0 100 100" fill="none" xmlns="http://www.w3.org/2000/svg">
<path fill-rule="evenodd" clip-rule="evenodd" d="M20.966 19.496C20.8717 19.5491 20.7827 19.6154 20.7015 19.6937C20.0351 20.3372 19.095 21.936 18.5267 24.1742C17.3379 28.8631 17.6089 36.496 25.2973 42.9653C24.767 42.8247 24.238 42.7929 23.7457 42.8672C23.0518 42.9706 22.4482 43.2785 21.9873 43.7455C21.9192 43.8132 21.8564 43.8835 21.7948 43.9578L21.7817 43.9445L20.3742 45.3217L20.3886 45.3363C20.3362 45.3708 20.2852 45.4106 20.2393 45.457C19.5061 46.1722 19.1225 47.2057 19.2076 48.3467C19.2848 49.3909 19.7575 50.4444 20.5379 51.267C21.3195 52.0882 22.3395 52.6083 23.366 52.7264C24.4868 52.8551 25.5225 52.5075 26.2557 51.7924C26.3015 51.7486 26.3408 51.7008 26.3762 51.6504L26.3866 51.661L27.7955 50.2825L27.7811 50.2692C27.9631 50.1286 28.128 49.9681 28.2747 49.7876C28.7028 49.2635 28.9569 48.5909 28.9935 47.8359C29.0132 47.4273 28.966 47.0001 28.8547 46.5742C34.93 52.136 38.4325 55.8603 41.0734 58.669C43.713 61.4765 47.2155 65.2008 52.4043 71.6184C51.9893 71.4844 51.5716 71.4167 51.167 71.4167C50.422 71.4167 49.7464 71.6423 49.2083 72.0509C49.025 72.1902 48.8574 72.3494 48.7107 72.5272L48.6976 72.5126L47.2718 73.8712L47.2822 73.8819C47.2299 73.915 47.1814 73.9535 47.1356 73.9973C46.3958 74.7045 46.0017 75.7354 46.075 76.8764C46.1431 77.9219 46.6053 78.9793 47.3778 79.8099C48.1503 80.6391 49.1664 81.1685 50.1916 81.2972C51.311 81.4378 52.3507 81.0995 53.0904 80.3923C53.1376 80.3472 53.1795 80.2981 53.2161 80.2464L53.2305 80.2623L54.6564 78.9037L54.642 78.8891C54.7179 78.8321 54.7912 78.771 54.862 78.706C55.3438 78.2615 55.6764 77.6658 55.8125 76.9679C55.9094 76.473 55.9042 75.937 55.7903 75.3931C61.7962 83.4864 69.3065 84.1299 73.986 83.152C76.2198 82.6863 77.8407 81.812 78.5072 81.1685C78.5883 81.0902 78.659 81.0027 78.7153 80.9098C78.8096 80.8567 78.8986 80.7904 78.9811 80.7108C82.824 76.9998 82.9772 71.5693 79.5599 67.4404C77.7569 65.2605 75.6476 63.4362 73.7779 62.323C72.7068 61.6848 72.1818 60.9087 71.4996 59.8565C67.4355 53.5915 57.3981 42.9056 57.3981 42.9056C57.3981 42.9056 47.3503 32.2304 41.3693 27.8149C40.365 27.0732 39.6253 26.5054 39.0492 25.3896C38.0423 23.4432 36.3454 21.2208 34.2845 19.2904C30.3788 15.6325 25.0171 15.5263 21.1742 19.236C21.093 19.3156 21.0236 19.4031 20.966 19.496ZM53.6534 46.5211C53.6534 46.5211 43.802 36.0369 37.9349 31.705C36.6177 30.7325 35.6907 29.9444 34.9339 28.4809C34.0253 26.7243 31.9159 24.3666 31.0505 23.4458C29.1009 21.3721 26.058 19.7057 23.4275 20.7578C23.2757 20.8838 23.1277 21.0165 22.9811 21.1571C22.8999 21.2367 22.8095 21.3031 22.7153 21.3562C22.659 21.449 22.5896 21.5366 22.5071 21.6149C22.0357 22.07 21.4649 23.2495 21.0642 24.8336C20.0351 28.8909 20.3847 35.4677 27.1238 41.0508L30.3853 37.4181C30.2819 37.1461 30.2046 36.8715 30.1575 36.6021C29.9572 35.4744 30.2609 34.5058 30.8986 33.8809L30.8973 33.8783L32.7094 32.111C33.0354 31.7647 33.4557 31.5179 33.9533 31.3906C34.6158 31.2234 35.404 31.2857 36.2066 31.6148C36.9189 31.908 37.6115 32.3976 38.185 33.0238C38.7624 33.654 39.1893 34.3891 39.4145 35.1228C39.6724 35.96 39.658 36.7574 39.421 37.4048C39.2665 37.8254 39.0269 38.181 38.7153 38.457L36.9778 40.1513C36.9582 40.1738 36.9385 40.195 36.9176 40.2149C36.2773 40.8385 35.3097 41.1105 34.2046 40.8637C34.0082 40.8199 33.8118 40.7602 33.6154 40.6859C33.4845 40.8332 33.4099 40.9566 33.3968 41.0787C33.3824 41.2193 33.478 41.3188 33.5317 41.421C33.6089 41.5656 33.6809 41.7049 33.7359 41.8416C33.8564 42.1467 33.8996 42.4479 33.8485 42.7531C33.7988 43.0516 33.6626 43.3727 33.3261 43.699C32.6688 44.3319 31.8793 44.5124 31.1565 44.576C30.9994 44.5893 30.7899 44.6105 30.6328 44.6265C36.5693 50.0609 40.0731 53.76 42.7101 56.5635L42.968 56.8381C45.6351 59.6747 49.1729 63.4362 54.4102 69.9121C54.4338 69.7543 54.4639 69.5433 54.4849 69.3854C54.5831 68.657 54.7991 67.8649 55.4551 67.2321C55.7916 66.9057 56.115 66.7849 56.4109 66.7478C56.7147 66.7106 57.0106 66.769 57.3052 66.907C57.4361 66.968 57.571 67.049 57.7097 67.1326C57.8079 67.1923 57.9009 67.2944 58.0397 67.2851C58.1615 67.2785 58.2859 67.2095 58.439 67.0848C58.3736 66.8818 58.3251 66.6801 58.2911 66.4798C58.1012 65.348 58.4155 64.3821 59.0623 63.7639C59.0832 63.744 59.1042 63.7254 59.1264 63.7068L60.8823 62.0298C61.169 61.7273 61.5304 61.5017 61.952 61.3664C62.6014 61.1581 63.3896 61.1806 64.2014 61.4831C64.9137 61.7472 65.6181 62.2142 66.2112 62.8285C66.8004 63.4401 67.2508 64.1646 67.5035 64.8996C67.7903 65.7275 67.8138 66.5289 67.6161 67.1909C67.4669 67.6898 67.2024 68.1037 66.8449 68.4169L65.0171 70.1642L65.0145 70.1616C64.3677 70.7785 63.3988 71.0386 62.2963 70.7812C62.0332 70.7201 61.7674 70.6286 61.5029 70.5105L58.2819 73.2052L57.7647 73.6377C62.9418 80.7267 69.4086 81.3994 73.4584 80.5529C75.04 80.2238 76.2289 79.7024 76.7003 79.2473C76.7828 79.1691 76.8718 79.1027 76.9661 79.0496C77.0237 78.9568 77.0931 78.8692 77.1743 78.7896C77.3196 78.649 77.4584 78.5057 77.5893 78.3571C78.7533 75.746 77.258 72.5856 75.3085 70.5118C74.443 69.5911 72.2197 67.3435 70.532 66.3378C69.1271 65.5019 68.3939 64.5254 67.4996 63.1456C63.5114 56.9973 53.6534 46.5211 53.6534 46.5211ZM51.1696 73.4069H51.167C50.8711 73.4069 50.5988 73.4825 50.3853 73.6444C50.185 73.7956 50.0502 74.0172 49.9834 74.2772C49.9009 74.6023 49.9245 74.9685 50.0331 75.3373C50.1876 75.8627 49.8917 76.4173 49.3732 76.5752C48.8613 76.7304 48.3218 76.4399 48.1582 75.9277C48.0574 76.1732 48.0168 76.4531 48.0351 76.7464C48.0744 77.3527 48.3572 77.9617 48.8063 78.4433C49.2554 78.9263 49.8381 79.2473 50.4338 79.323C50.7179 79.3588 50.9942 79.3349 51.239 79.2487C51.184 79.2274 51.1277 79.2049 51.0714 79.1823C50.5713 78.97 50.3356 78.3863 50.5438 77.8794C50.7533 77.3739 51.3294 77.1338 51.8295 77.3461C52.1752 77.492 52.5287 77.5583 52.8574 77.5238C53.1219 77.496 53.3601 77.4005 53.5408 77.2333C53.7058 77.082 53.8158 76.8777 53.8721 76.6442C53.6403 76.7119 53.3942 76.7464 53.148 76.745C52.5248 76.7384 51.9186 76.4969 51.5192 76.0724C51.1186 75.6478 50.9104 75.0216 50.934 74.39C50.9471 74.0464 51.0295 73.708 51.1696 73.4069ZM59.3844 68.8361C58.5503 69.3934 57.9075 69.3377 57.4007 69.1771C57.1795 69.1068 56.8744 68.9423 56.678 68.8295C56.5497 69.0206 56.4999 69.2368 56.4633 69.4411C56.4109 69.7344 56.3913 70.0183 56.3546 70.2637C56.2904 70.683 56.1621 71.028 55.9723 71.2867C55.8636 71.4897 55.6921 71.7192 55.442 71.97C54.968 72.4436 54.1104 73.111 52.9726 74.2096C52.9097 74.2706 52.9006 74.3728 52.8967 74.4683C52.894 74.5505 52.8875 74.6434 52.9399 74.6991C52.9935 74.7549 53.0839 74.7535 53.1664 74.7549C53.2606 74.7549 53.3615 74.7509 53.4243 74.6899C53.4413 74.6739 53.4597 74.658 53.4767 74.6421L59.8256 69.3337C59.7824 69.2899 59.7392 69.2461 59.6973 69.201C59.5873 69.0829 59.4826 68.9608 59.3844 68.8361ZM63.6279 68.7486C63.2875 68.5071 63.1225 68.0613 63.2521 67.6381C63.4132 67.114 63.9631 66.8194 64.4816 66.9813C64.8194 67.0874 65.1389 67.1153 65.3981 67.0092C65.567 66.9388 65.681 66.7969 65.7359 66.6138C65.8276 66.3073 65.7831 65.9398 65.6508 65.5577C65.4859 65.0814 65.1886 64.6157 64.8063 64.2203C64.4279 63.8276 63.9828 63.5211 63.5271 63.3512C63.171 63.2199 62.8292 63.1721 62.5464 63.2637C62.3697 63.3194 62.2387 63.4428 62.1719 63.6166C62.0646 63.8965 62.0895 64.2428 62.1968 64.6077C62.3513 65.1344 62.0541 65.689 61.5343 65.8456C61.0499 65.9902 60.5418 65.7394 60.3507 65.2777C60.187 65.4887 60.17 65.8031 60.2276 66.1468C60.3245 66.7279 60.6557 67.3302 61.1258 67.8357C61.5958 68.3399 62.1706 68.7101 62.7376 68.8414C63.0872 68.9237 63.4093 68.921 63.6279 68.7486ZM59.5284 61.4659L57.948 59.7849C57.5736 59.3868 56.9516 59.3722 56.5588 59.7517L52.767 63.4123C52.4253 63.7426 52.3638 64.2747 52.623 64.6767L53.7137 66.371C54.0109 66.8314 54.6197 66.9614 55.0728 66.6615C55.5271 66.3604 55.6554 65.7434 55.3582 65.2844L54.714 64.2826L57.203 61.8785L58.1065 62.8391C58.4796 63.2371 59.1029 63.2517 59.4944 62.8723C59.8872 62.4941 59.9016 61.8639 59.5284 61.4659ZM64.712 65.9703C64.4868 66.1852 63.9605 65.9902 63.5376 65.5351C63.1134 65.08 62.951 64.5361 63.1762 64.3211C63.4014 64.1075 63.9278 64.3025 64.3507 64.7576C64.7749 65.2127 64.9359 65.7567 64.712 65.9703ZM23.9722 44.8454C23.7392 44.8918 23.5323 44.9927 23.3752 45.1532C23.201 45.3283 23.0963 45.5645 23.0557 45.8298C23.0046 46.1615 23.0531 46.5224 23.1814 46.8807C23.366 47.3968 23.1028 47.9673 22.5935 48.1544C22.0829 48.3414 21.5199 48.0748 21.3352 47.5586C21.3143 47.5003 21.2946 47.4432 21.2763 47.3848C21.1807 47.6303 21.1441 47.9076 21.165 48.1968C21.2109 48.8045 21.5002 49.4082 21.9532 49.8858C22.4063 50.3634 22.9915 50.6805 23.5886 50.7495C23.8766 50.7827 24.1542 50.7548 24.4017 50.6646C23.9041 50.4736 23.6449 49.9137 23.823 49.4029C24.0023 48.8854 24.564 48.6121 25.0747 48.7952C25.4321 48.9226 25.7922 48.9637 26.1169 48.896C26.3762 48.8416 26.6014 48.7156 26.7598 48.5205C26.93 48.3122 27.0177 48.0403 27.0321 47.7404V47.7377C26.7284 47.8651 26.3906 47.9315 26.0514 47.9288C25.4282 47.9222 24.822 47.6807 24.4226 47.2561C24.0233 46.8316 23.8138 46.2053 23.8374 45.5738C23.8478 45.3243 23.8937 45.0776 23.9722 44.8454ZM37.7844 41.2273L38.6865 42.1879L36.1974 44.5906L35.2416 43.8901C34.8017 43.5677 34.1876 43.6672 33.8695 44.1117C33.5526 44.5575 33.6508 45.1797 34.0894 45.5021L35.7078 46.6883C36.0914 46.9695 36.6177 46.9337 36.9608 46.6034L40.7526 42.9415C40.9412 42.7597 41.0511 42.5089 41.0564 42.2449C41.0629 41.9809 40.966 41.7261 40.7867 41.5351L39.205 39.8541C38.8318 39.456 38.2099 39.4414 37.8171 39.8196C37.4243 40.199 37.4099 40.8292 37.7844 41.2273ZM31.4642 39.1734L25.9258 45.3429C25.91 45.3602 25.893 45.3774 25.8773 45.3933C25.8145 45.4544 25.804 45.5565 25.8001 45.6521C25.7974 45.7343 25.7909 45.8272 25.8446 45.8829C25.8969 45.9386 25.9873 45.9373 26.0698 45.9386C26.1641 45.9386 26.2649 45.9347 26.3277 45.8736C27.4655 44.7751 28.166 43.9392 28.6544 43.4828C28.9136 43.2413 29.148 43.0794 29.3549 42.9799C29.6181 42.7995 29.9637 42.6854 30.3814 42.6416C30.6236 42.6151 30.9051 42.6098 31.1971 42.57C31.4001 42.5434 31.6161 42.5036 31.8099 42.3829C31.7078 42.1786 31.5611 41.8628 31.5022 41.6359C31.3686 41.1145 31.3451 40.4604 31.933 39.6431C31.8151 39.5383 31.6999 39.4255 31.5899 39.3088C31.5467 39.265 31.5048 39.2199 31.4642 39.1734ZM35.4878 38.8377C35.0426 38.6215 34.8187 38.0948 34.9863 37.6118C35.1657 37.093 35.7261 36.8197 36.2367 37.0015C36.5929 37.1275 36.932 37.1687 37.2135 37.0731C37.3876 37.0148 37.5159 36.8874 37.5801 36.7123C37.6835 36.4296 37.6534 36.082 37.5408 35.7158C37.3955 35.2462 37.1153 34.7805 36.7461 34.3785C36.3742 33.9725 35.929 33.6487 35.4682 33.459C35.0976 33.3077 34.7375 33.2441 34.4312 33.321C34.2479 33.3688 34.1025 33.4776 34.0253 33.6461C33.9074 33.9021 33.9192 34.2272 34.0082 34.5748C34.1431 35.1069 33.8263 35.6495 33.3025 35.7862C32.8783 35.8976 32.4475 35.7092 32.2263 35.3536C32.0443 35.5659 32.0272 35.8923 32.0901 36.2492C32.1935 36.8303 32.53 37.43 33.0053 37.9289C33.4793 38.4291 34.058 38.7926 34.6263 38.92C34.9627 38.9943 35.2718 38.993 35.4878 38.8377ZM35.0151 34.3891C34.7925 34.6067 34.9601 35.1493 35.3883 35.5991C35.8164 36.0502 36.3441 36.2399 36.5667 36.0237C36.7893 35.8061 36.623 35.2647 36.1948 34.8136C35.7667 34.3625 35.2377 34.1728 35.0151 34.3891Z" fill="#1A1A1A"/>
</svg>
